<?xml version="1.0" encoding="UTF-8" standalone="no"?>
<!DOCTYPE svg PUBLIC "-//W3C//DTD SVG 1.1//EN" "http://www.w3.org/Graphics/SVG/1.1/DTD/svg11.dtd">
<svg width="100%" height="100%" viewBox="0 0 24 24" version="1.1" xmlns="http://www.w3.org/2000/svg" xmlns:xlink="http://www.w3.org/1999/xlink" xml:space="preserve" xmlns:serif="http://www.serif.com/" style="fill-rule:evenodd;clip-rule:evenodd;stroke-linejoin:round;stroke-miterlimit:2;">
    <path d="M11.754,0C11.03,0.009 10.321,0.215 9.705,0.596L3.33,4.532C2.078,5.305 1.314,6.676 1.313,8.147L1.313,16.177C1.313,17.65 2.103,19.015 3.38,19.751L9.866,23.484C11.05,24.165 12.51,24.172 13.701,23.502L20.744,19.536C21.942,18.861 22.686,17.588 22.687,16.213L22.687,7.752C22.687,6.483 22.01,5.306 20.913,4.668L13.817,0.541C13.191,0.178 12.478,-0.009 11.754,0.001L11.754,0ZM11.776,1.674C12.189,1.668 12.604,1.774 12.976,1.989L20.071,6.116C20.655,6.456 21.012,7.076 21.011,7.751L21.011,16.213C21.011,16.987 20.597,17.697 19.922,18.077L12.88,22.043C12.204,22.425 11.374,22.421 10.701,22.033L4.216,18.299C3.457,17.863 2.988,17.051 2.988,16.176L2.988,8.146C2.988,7.253 3.449,6.426 4.209,5.956L10.585,2.021C10.943,1.8 11.354,1.68 11.775,1.674L11.776,1.674ZM7.076,5.518L7.076,18.37L9.766,18.37L9.766,12.75L14.226,12.75L14.226,18.37L16.922,18.37L16.922,5.518L14.226,5.518L14.226,10.199L9.766,10.199L9.766,5.518L7.076,5.518Z" style="fill-rule:nonzero;"/>
</svg>
