<?xml version="1.0" encoding="UTF-8" standalone="no"?>
<!DOCTYPE svg PUBLIC "-//W3C//DTD SVG 1.1//EN" "http://www.w3.org/Graphics/SVG/1.1/DTD/svg11.dtd">
<svg width="100%" height="100%" viewBox="0 0 3366 654" version="1.1" xmlns="http://www.w3.org/2000/svg" xmlns:xlink="http://www.w3.org/1999/xlink" xml:space="preserve" xmlns:serif="http://www.serif.com/" style="fill-rule:evenodd;clip-rule:evenodd;stroke-linejoin:round;stroke-miterlimit:2;">
    <g id="Logo" transform="matrix(0.95929,0,0,0.263422,2.27374e-13,0)">
        <rect x="0" y="0" width="3507.87" height="2480.32" style="fill:none;"/>
        <g transform="matrix(2.23693,0,0,8.1461,-2538.81,-6027.5)">
            <path d="M1212.77,747.918L1279.26,946.627L1231.79,1032.29L1143.26,1032.29L1200.1,926.824L1143.26,748.114L1212.77,747.918ZM1306.56,897.339L1278.32,812.924L1314.16,747.918L1389.36,747.918L1306.56,897.339Z" style="fill:white;fill-rule:nonzero;"/>
            <g transform="matrix(377.839,0,0,377.839,1343.69,1032.52)">
                <path d="M0.482,-0.302L0.221,-0.302L0.191,-0.132L0.5,-0.132L0.477,-0L0.001,-0L0.124,-0.711L0.601,-0.711L0.578,-0.579L0.269,-0.579L0.242,-0.429L0.504,-0.429L0.482,-0.302Z" style="fill:white;fill-rule:nonzero;"/>
            </g>
            <g transform="matrix(377.839,0,0,377.839,1535.58,1032.52)">
                <path d="M0.392,-0.192C0.399,-0.229 0.379,-0.258 0.332,-0.278L0.252,-0.311C0.14,-0.361 0.086,-0.43 0.092,-0.517C0.094,-0.557 0.108,-0.592 0.133,-0.623C0.158,-0.654 0.193,-0.679 0.237,-0.696C0.281,-0.713 0.329,-0.721 0.382,-0.721C0.452,-0.719 0.509,-0.699 0.552,-0.659C0.594,-0.619 0.615,-0.566 0.615,-0.5L0.449,-0.5C0.45,-0.527 0.444,-0.549 0.431,-0.565C0.419,-0.582 0.398,-0.59 0.37,-0.591C0.342,-0.591 0.317,-0.585 0.295,-0.571C0.274,-0.558 0.261,-0.539 0.257,-0.516C0.251,-0.484 0.275,-0.457 0.33,-0.436C0.384,-0.415 0.424,-0.397 0.449,-0.382C0.527,-0.336 0.563,-0.273 0.558,-0.194C0.556,-0.153 0.542,-0.117 0.519,-0.086C0.495,-0.055 0.462,-0.031 0.42,-0.014C0.378,0.003 0.33,0.011 0.278,0.01C0.239,0.01 0.204,0.004 0.171,-0.008C0.138,-0.019 0.11,-0.036 0.086,-0.058C0.039,-0.102 0.016,-0.159 0.018,-0.231L0.186,-0.23C0.184,-0.194 0.191,-0.166 0.207,-0.148C0.222,-0.129 0.249,-0.12 0.287,-0.12C0.315,-0.12 0.338,-0.126 0.357,-0.139C0.376,-0.152 0.387,-0.17 0.392,-0.192Z" style="fill:white;fill-rule:nonzero;"/>
            </g>
            <g transform="matrix(377.839,0,0,377.839,1751.82,1032.52)">
                <path d="M0.21,-0.242L0.168,-0L0.001,-0L0.124,-0.711L0.379,-0.71C0.458,-0.71 0.521,-0.688 0.566,-0.645C0.612,-0.601 0.632,-0.544 0.626,-0.474C0.622,-0.426 0.607,-0.385 0.58,-0.349C0.553,-0.314 0.518,-0.288 0.474,-0.269C0.431,-0.25 0.382,-0.241 0.327,-0.241L0.21,-0.242ZM0.233,-0.374L0.333,-0.373C0.376,-0.374 0.408,-0.387 0.431,-0.414C0.453,-0.441 0.462,-0.473 0.458,-0.512C0.455,-0.532 0.447,-0.548 0.435,-0.559C0.422,-0.571 0.406,-0.577 0.385,-0.579L0.269,-0.579L0.233,-0.374Z" style="fill:white;fill-rule:nonzero;"/>
            </g>
            <g transform="matrix(377.839,0,0,377.839,1977.09,1032.52)">
                <path d="M0.294,0.01C0.221,0.008 0.161,-0.016 0.117,-0.063C0.072,-0.111 0.047,-0.174 0.041,-0.253C0.038,-0.292 0.041,-0.338 0.05,-0.391C0.06,-0.444 0.076,-0.493 0.101,-0.537C0.125,-0.582 0.155,-0.619 0.191,-0.648C0.251,-0.698 0.321,-0.722 0.4,-0.721C0.448,-0.72 0.491,-0.709 0.527,-0.687C0.563,-0.666 0.592,-0.635 0.614,-0.595C0.636,-0.555 0.649,-0.51 0.652,-0.458C0.655,-0.422 0.653,-0.381 0.646,-0.335C0.639,-0.289 0.626,-0.245 0.607,-0.203C0.588,-0.162 0.564,-0.125 0.535,-0.093C0.505,-0.061 0.47,-0.036 0.43,-0.017C0.39,0.002 0.345,0.011 0.294,0.01ZM0.485,-0.46C0.482,-0.541 0.45,-0.584 0.39,-0.587C0.344,-0.589 0.306,-0.571 0.275,-0.532C0.245,-0.493 0.225,-0.436 0.215,-0.36C0.209,-0.313 0.207,-0.277 0.208,-0.251C0.212,-0.168 0.244,-0.126 0.304,-0.124C0.344,-0.122 0.378,-0.136 0.407,-0.166C0.435,-0.197 0.456,-0.241 0.469,-0.299C0.481,-0.357 0.487,-0.411 0.485,-0.46Z" style="fill:white;fill-rule:nonzero;"/>
            </g>
            <g transform="matrix(377.839,0,0,377.839,2216.95,1032.52)">
                <path d="M0.305,-0.251L0.212,-0.251L0.168,-0L0.001,-0L0.124,-0.711L0.375,-0.71C0.455,-0.71 0.517,-0.692 0.561,-0.654C0.604,-0.617 0.624,-0.565 0.619,-0.5C0.616,-0.449 0.601,-0.406 0.575,-0.373C0.549,-0.339 0.512,-0.312 0.465,-0.293L0.561,-0.008L0.561,-0L0.383,-0L0.305,-0.251ZM0.234,-0.383L0.332,-0.382C0.359,-0.382 0.382,-0.389 0.402,-0.402C0.421,-0.415 0.435,-0.433 0.444,-0.456C0.452,-0.478 0.455,-0.5 0.451,-0.521C0.445,-0.558 0.422,-0.577 0.382,-0.579L0.269,-0.579L0.234,-0.383Z" style="fill:white;fill-rule:nonzero;"/>
            </g>
            <g transform="matrix(400,0,0,400,2428.21,1032.29)">
                <path d="M0.644,-0.579L0.437,-0.579L0.336,-0L0.169,-0L0.27,-0.579L0.066,-0.579L0.089,-0.711L0.667,-0.711L0.644,-0.579Z" style="fill:white;fill-rule:nonzero;"/>
            </g>
        </g>
    </g>
</svg>
